<svg width="112" height="20" viewBox="0 0 112 20" fill="none" xmlns="http://www.w3.org/2000/svg">
<path d="M4.12305 14.224V4.56972H10.309V0.622131H0V18.6726L11.3773 17.2576L10.6314 13.1751L4.12305 14.224Z" fill="#00A0E2"/>
<path d="M12.4484 6.92892H7.53844V10.7609H12.4484V19.2947H16.6616V0H12.4484V6.92892Z" fill="#00A0E2"/>
<path d="M66.5672 0.311096H55.9795V10.7994H66.5672V0.311096ZM62.6846 7.47676H59.9304V3.63378H62.6846V7.47676Z" fill="#00A0E2"/>
<path d="M72.6384 0H68.4197V14.3176H72.6384V0Z" fill="#00A0E2"/>
<path d="M61.037 12.3933H56.7637V19.2947H72.9198V15.8867H61.037V12.3933Z" fill="#00A0E2"/>
<path d="M103.464 6.20219L97.2155 6.984V3.73839H103.287V0.311096H93.0924V10.7224L104.03 9.71207L103.464 6.20219Z" fill="#00A0E2"/>
<path d="M109.208 4.43759V0H105.085V10.659H109.208V8.0686H112V4.43759H109.208Z" fill="#00A0E2"/>
<path d="M105.891 11.5042H97.3466C95.3029 11.5042 93.6908 13.1531 93.6908 15.4132C93.6908 17.6513 95.3029 19.3222 97.3466 19.3222H105.891C107.989 19.3222 109.582 17.654 109.582 15.4132C109.582 13.1531 107.989 11.5042 105.891 11.5042ZM104.401 16.1179H98.8221C98.3958 16.1179 98.0598 15.9004 98.0598 15.3003C98.0598 14.6259 98.3958 14.4607 98.8221 14.4607H104.401C104.899 14.4607 105.232 14.6286 105.232 15.3003C105.232 15.9004 104.896 16.1179 104.401 16.1179Z" fill="#00A0E2"/>
<path d="M34.9462 0.110107H29.6537V1.71777H24.2711V0.110107H19.0141V6.84357H34.9435V0.110107H34.9462ZM29.651 4.89731H24.2711V3.46308H29.651V4.89731Z" fill="#00A0E2"/>
<path d="M18.3584 10.4746H24.9951V11.6886H19.0141V13.4725H29.6728V14.5956H19.0141V19.2947H35.2276V17.4724L24.4214 17.4586V16.3272L34.9462 16.3299V11.6886H28.9461V10.4746H35.5992V7.94751H18.3584V10.4746Z" fill="#00A0E2"/>
<path d="M74.3106 14.7965H80.8162V19.358H85.0513V14.7965H91.5569V11.3032H74.3106V14.7965Z" fill="#00A0E2"/>
<path d="M74.5892 6.91243L76.3243 10.6591L82.9337 8.18975L89.647 10.648L91.2782 6.89866L85.0458 5.15611V3.843H90.9011V0.311096H74.969V3.843H80.8244V5.15336L74.5892 6.91243Z" fill="#00A0E2"/>
<path d="M49.7034 6.97296H47.2826V5.21665C47.2826 2.16099 45.0339 0.0825854 42.2606 0.0825854C39.5037 0.0825854 37.2577 2.16099 37.2577 5.21665V14.0946C37.2577 17.1502 39.5037 19.2259 42.2606 19.2259C45.0366 19.2259 47.2826 17.1502 47.2826 14.0946V11.0885H49.7034V19.2947H53.9057V0H49.7034V6.97296ZM43.3508 14.8957C43.3508 15.4765 42.9191 15.994 42.3234 15.994C41.7305 15.994 41.3152 15.4793 41.3152 14.8957V4.72664C41.3152 4.17607 41.7305 3.61449 42.3234 3.61449C42.9191 3.61449 43.3508 4.17882 43.3508 4.72664V14.8957Z" fill="#00A0E2"/>
</svg>
