<svg width="103" height="24" viewBox="0 0 103 24" fill="none" xmlns="http://www.w3.org/2000/svg">
<path d="M68.617 16.4366L68.7922 20.1142L80.3992 19.6372L80.2503 16.1157L68.617 16.4366Z" fill="#211714"/>
<path d="M74.3066 7.60681C75.5637 7.60681 76.1462 8.43515 76.1462 9.42828C76.1462 10.4171 75.5068 11.2497 74.3066 11.2497C73.0934 11.2497 72.467 10.4214 72.467 9.42828C72.467 8.43948 73.0671 7.60681 74.3066 7.60681ZM74.3066 14.8276C77.872 14.8276 79.7641 12.3643 79.7641 9.42828C79.7641 6.49225 78.0428 4.02893 74.3066 4.02893C70.6274 4.02893 68.8492 6.49225 68.8492 9.42828C68.8492 12.3643 70.7063 14.8276 74.3066 14.8276Z" fill="#211714"/>
<path d="M55.3851 15.4391H51.5131V21.5193H51.6489H66.8212V18.1149L55.3851 18.2016V15.4391Z" fill="#211714"/>
<path d="M54.1192 11.1543V7.86699H57.1633V10.8247C56.2873 11.0416 55.1748 11.1283 54.1192 11.1543ZM57.1633 14.3202H60.7505V4.46259H50.5189V14.3549C50.5189 14.3549 53.9966 14.3159 57.1677 13.8301V14.3202H57.1633Z" fill="#211714"/>
<path d="M66.3131 3.77734H62.4412V16.7011H66.3131V3.77734Z" fill="#211714"/>
<path d="M84.823 3.77734H80.9511V21.5193H84.823V3.77734Z" fill="#211714"/>
<path d="M98.5193 7.45501V4.74449H94.7963V3.49548H90.9243V4.74883H87.2014V7.45934C87.2014 7.45934 90.3506 7.27286 92.7289 7.27286C95.1116 7.26852 98.5193 7.45501 98.5193 7.45501Z" fill="#211714"/>
<path d="M99.1237 18.7134H92.0675V17.9458H99.1237V18.7134ZM88.1956 15.1702V21.7796H92.0675V21.5237H99.1237V21.7796H102.996V15.1702H88.1956Z" fill="#211714"/>
<path d="M92.8165 10.0744C93.8458 10.0744 94.5466 10.4604 94.5466 10.9982C94.5466 11.536 93.8502 11.9219 92.8165 11.9219C91.7872 11.9219 91.0864 11.536 91.0864 10.9982C91.0908 10.4604 91.7872 10.0744 92.8165 10.0744ZM92.8603 14.4546C96.4869 14.4546 98.1995 12.8804 98.1995 11.0025C98.1995 9.12468 96.6578 7.55042 92.8603 7.55042C89.1198 7.55042 87.5211 9.12468 87.5211 11.0025C87.5211 12.876 89.203 14.4546 92.8603 14.4546Z" fill="#211714"/>
<path d="M102.996 3.77734H99.1237V14.5977H102.996V3.77734Z" fill="#211714"/>
<path d="M31.7112 14.2118H38.1104V15.4391H33.0996V18.8608L43.2963 18.67V21.528H47.1682V15.4391H41.9823V14.2118H48.5873V10.9071H31.7112V14.2118Z" fill="#211714"/>
<path d="M42.8714 10.3954L46.5813 10.3824C47.4222 7.08641 47.4748 4.24146 47.4748 4.24146H33.1653V7.63285L43.5415 7.51576C43.4101 8.53058 43.2043 9.58876 42.8714 10.3954Z" fill="#211714"/>
<path d="M8.07233 0L0 8.00145V24H16.1709L24.2389 16.0029V0H8.07233Z" fill="#E61E2B"/>
</svg>
