<svg width="199" height="68" viewBox="0 0 199 68" fill="none" xmlns="http://www.w3.org/2000/svg">
<path d="M167 0.699951L171.6 9.29995C171.6 9.29995 188 14.8 188.2 29.7C188.2 29.7 193.2 3.19995 167 0.699951Z" fill="#B081B7"/>
<path d="M184.2 6.6L185.3 0C185.3 0 199 8.5 188.2 29.7C188.2 29.7 192.6 17.6 184.2 6.6Z" fill="#834F99"/>
<path d="M192.6 7.49995L195.9 1.19995C195.9 1.19995 205.3 13.8 188.2 29.7C188.2 29.7 196.6 20.9 192.6 7.49995Z" fill="#5A147E"/>
<path d="M23.5001 53.9C22.3001 53.2 21.3001 52.4 20.4001 51.4C19.5001 50.4 18.8001 49.3 18.3001 48C17.8001 46.7 17.5001 45.3 17.5001 43.6V28.2C17.5001 27.4 17.4001 26.8 17.2001 26.5C17.0001 26.1 16.4001 25.9 15.5001 25.9H8.2001L8.5001 26.1C8.8001 26.4 9.2001 26.8 9.5001 27.3C9.8001 27.8 10.0001 28.4 10.0001 29.2V43.7C10.0001 45.3 9.7001 46.8 9.2001 48.1C8.7001 49.4 8.0001 50.5 7.1001 51.5C6.2001 52.5 5.2001 53.3 4.0001 54C2.8001 54.7 1.5001 55.2 0.200098 55.7H0.100098L0.700098 57.4C1.0001 58.3 1.6001 58.9 2.3001 59.3C3.0001 59.7 4.1001 59.7 5.3001 59.2C7.3001 58.4 9.0001 57.6 10.3001 56.6C11.6001 55.7 12.8001 54.6 13.7001 53.3C14.6001 54.5 15.8001 55.6 17.1001 56.6C18.5001 57.6 20.2001 58.5 22.1001 59.2C22.8001 59.5 23.4001 59.6 23.9001 59.6C24.3001 59.6 24.7001 59.5 25.1001 59.3C25.8001 58.9 26.4001 58.3 26.7001 57.4L27.3001 55.7H27.2001C26.0001 55.1 24.7001 54.6 23.5001 53.9Z" fill="#5A147E"/>
<path d="M37.2 24.5H30L30.3 24.7C30.6 25 31 25.4 31.3 25.9C31.6 26.4 31.8 27 31.8 27.8V66.3H33.6C34.5 66.3 35.3 66.2 36 66C36.7 65.8 37.3 65.5 37.8 65C38.3 64.5 38.7 63.9 38.9 63.1C39.2 62.3 39.3 61.4 39.3 60.2V26.7C39.3 25.9 39.2 25.4 39 25C38.7 24.7 38.1 24.5 37.2 24.5Z" fill="#5A147E"/>
<path d="M85.3 24.5H78.6L78.9 24.7C79.2 25 79.6 25.4 79.9 25.9C80.2 26.4 80.4 27 80.4 27.8V40.6H77V27.7C77 26.9 76.9 26.3 76.7 26C76.5 25.6 75.9 25.4 75 25.4H68.3L68.6 25.6C68.9 25.9 69.3 26.3 69.6 26.8C69.9 27.3 70.1 27.9 70.1 28.7V65.3H71.3C72.2 65.3 73 65.2 73.7 65C74.4 64.8 75 64.5 75.5 64C76 63.5 76.4 62.9 76.6 62.1C76.9 61.3 77 60.4 77 59.2V45.4H80.3V66.3H81.5C82.4 66.3 83.2 66.2 83.9 66C84.6 65.8 85.2 65.5 85.7 65C86.2 64.5 86.6 63.9 86.8 63.1C87.1 62.3 87.2 61.4 87.2 60.2V26.7C87.2 25.9 87.1 25.4 86.9 25C86.8 24.7 86.2 24.5 85.3 24.5Z" fill="#5A147E"/>
<path d="M57.5001 31.4H62.6001C64.4001 31.4 65.6001 31.1 66.2001 30.4C66.8001 29.7 67.1001 29 67.1001 28V26.5H48.1001L48.4001 26.7C48.8001 27.1 49.2001 27.5 49.5001 27.9C49.8001 28.3 50.0001 29 50.0001 29.8V53.7C50.0001 54.8 50.1001 55.7 50.4001 56.4C50.7001 57.1 51.1001 57.6 51.6001 58C52.1001 58.4 52.8001 58.6 53.5001 58.7C54.2001 58.8 55.1001 58.9 56.0001 58.9H64.1001C65.9001 58.9 67.1001 58.6 67.7001 57.9C68.3001 57.2 68.6001 56.5 68.6001 55.5V54H57.5001V31.4Z" fill="#5A147E"/>
<path d="M106.7 47.4C108 46.5 109.2 45.4 110.1 44.1C111 45.3 112.2 46.4 113.5 47.4C114.9 48.4 116.6 49.3 118.6 50C119.3 50.3 119.9 50.4 120.4 50.4C120.8 50.4 121.2 50.3 121.6 50.1C122.3 49.7 122.9 49.1 123.2 48.2L123.8 46.5H123.7C122.4 46.1 121.1 45.5 119.9 44.8C118.7 44.1 117.7 43.3 116.8 42.3C115.9 41.3 115.2 40.2 114.7 38.9C114.2 37.6 113.9 36.2 113.9 34.5V31.2H118.3C120.1 31.2 121.3 30.9 121.9 30.2C122.5 29.5 122.8 28.8 122.8 27.8V26.3H100.7C100 26.3 99.4001 26.1 98.8001 25.8C98.3001 25.5 97.9001 25.2 97.6001 24.8L97.4001 24.5V29.1C97.4001 30 97.6001 30.6 98.0001 30.8C98.4001 31 98.9001 31.1 99.7001 31.1H106.4V34.4C106.4 36 106.1 37.5 105.6 38.8C105.1 40.1 104.4 41.2 103.5 42.2C102.6 43.2 101.6 44 100.4 44.7C99.2001 45.4 97.9001 45.9 96.6001 46.4H96.5001L97.1001 48.1C97.4001 49 98.0001 49.6 98.7001 50C99.4001 50.4 100.5 50.4 101.7 49.9C103.6 49.3 105.3 48.4 106.7 47.4Z" fill="#5A147E"/>
<path d="M109.8 54.4C109.8 53.6 109.7 53 109.5 52.7C109.3 52.3 108.7 52.1 107.8 52.1H100.6L100.9 52.3C101.2 52.6 101.6 52.9 101.9 53.5C102.2 54 102.4 54.6 102.4 55.4V62C102.4 63.1 102.5 64 102.8 64.7C103.1 65.4 103.5 65.9 104 66.3C104.5 66.7 105.2 66.9 105.9 67C106.6 67.1 107.5 67.2 108.4 67.2H131.6C133.4 67.2 134.6 66.9 135.2 66.2C135.8 65.5 136.1 64.8 136.1 63.8V62.3H109.9V54.4H109.8Z" fill="#5A147E"/>
<path d="M127.6 25.9C127.9 26.4 128.1 27 128.1 27.8V35.3H119.6V36.8C119.6 37.7 119.9 38.5 120.5 39.2C121.1 39.9 122.3 40.2 124.1 40.2H128.1V57.4H129.9C130.8 57.4 131.6 57.3 132.3 57.1C133 56.9 133.6 56.6 134.1 56.1C134.6 55.6 135 55 135.2 54.2C135.5 53.4 135.6 52.5 135.6 51.3V26.7C135.6 25.9 135.5 25.3 135.3 25C135.1 24.6 134.5 24.4 133.6 24.4H126.4L126.7 24.6C127 25 127.3 25.4 127.6 25.9Z" fill="#5A147E"/>
<path d="M146.3 31.8C146.7 32 147.2 32.1 148 32.1H165.9C167.7 32.1 168.9 31.8 169.5 31.2C170.1 30.6 170.4 29.9 170.4 29V27.8H161.8V27.4C161.8 26.6 161.7 26 161.5 25.7C161.3 25.3 160.7 25.1 159.8 25.1H152.6L152.9 25.3C153.2 25.5 153.5 25.9 153.8 26.3C154.1 26.7 154.2 27.2 154.3 27.7H149C148.3 27.7 147.7 27.6 147.1 27.3C146.6 27 146.2 26.7 145.9 26.4L145.7 26.1V30.2C145.8 31.1 146 31.6 146.3 31.8Z" fill="#5A147E"/>
<path d="M181.6 36V26.7C181.6 25.9 181.5 25.4 181.3 25C181.1 24.6 180.5 24.4 179.6 24.4H172.4L172.7 24.6C173 24.9 173.4 25.3 173.7 25.8C174 26.3 174.2 26.9 174.2 27.7V57.3H176C176.9 57.3 177.7 57.2 178.4 57C179.1 56.8 179.7 56.5 180.2 56C180.7 55.5 181.1 54.9 181.3 54.1C181.6 53.3 181.7 52.4 181.7 51.2V40.9H183.8C185.6 40.9 186.8 40.6 187.4 39.9C188 39.2 188.3 38.5 188.3 37.5V36H181.6Z" fill="#5A147E"/>
<path d="M171 49.1C171.6 48.4 171.9 47.7 171.9 46.7V45.1H161.9V43.6H163.8C165.9 43.6 167.4 43.2 168.2 42.3C169 41.4 169.5 40.2 169.5 38.5C169.5 36.9 169.1 35.6 168.2 34.7C167.4 33.9 165.9 33.4 163.8 33.4H152.5C150.4 33.4 148.9 33.8 148.1 34.7C147.3 35.5 146.8 36.8 146.8 38.5C146.8 40.2 147.2 41.5 148.1 42.3C148.9 43.1 150.4 43.6 152.5 43.6H154.4C154.4 43.7 154.4 43.9 154.4 44.2V45.2H147.7C147 45.2 146.4 45 145.8 44.7C145.3 44.4 144.9 44.1 144.6 43.7L144.4 43.4V48.1C144.4 49 144.6 49.6 145 49.8C145.4 50 145.9 50.1 146.7 50.1H167.4C169.2 50.1 170.4 49.8 171 49.1ZM160.6 39.7H155.7C155.1 39.7 154.8 39.6 154.6 39.4C154.4 39.2 154.3 38.9 154.3 38.5C154.3 38.2 154.4 37.9 154.6 37.7C154.8 37.5 155.2 37.4 155.7 37.4H160.6C161.2 37.4 161.5 37.5 161.7 37.7C161.9 37.9 162 38.2 162 38.5C162 38.9 161.9 39.2 161.7 39.4C161.5 39.6 161.1 39.7 160.6 39.7Z" fill="#5A147E"/>
<path d="M158.3 54.4C158.3 53.6 158.2 53 158 52.7C157.8 52.3 157.2 52.1 156.3 52.1H149.1L149.4 52.3C149.7 52.6 150.1 53 150.4 53.5C150.7 54 150.9 54.6 150.9 55.4V62C150.9 63.1 151 64 151.3 64.7C151.6 65.4 152 65.9 152.5 66.3C153 66.7 153.7 66.9 154.4 67C155.1 67.1 156 67.2 156.9 67.2H177.6C179.4 67.2 180.6 66.9 181.2 66.2C181.8 65.5 182.1 64.7 182.1 63.8V62.3H158.3V54.4Z" fill="#5A147E"/>
</svg>
